<svg width="512" height="512" viewBox="0 0 512 512" fill="none" xmlns="http://www.w3.org/2000/svg">
  <path d="M165.2 78.4C165.2 54.1 184.9 34.4 209.2 34.4C233.5 34.4 253.2 54.1 253.2 78.4V102.4H165.2V78.4ZM293.2 78.4C293.2 54.1 312.9 34.4 337.2 34.4C361.5 34.4 381.2 54.1 381.2 78.4V102.4H293.2V78.4ZM421.2 78.4C421.2 54.1 440.9 34.4 465.2 34.4C489.5 34.4 509.2 54.1 509.2 78.4V102.4H421.2V78.4Z" fill="#077AF1"/>
  <path d="M421.1 126.4H119.5L145.4 430.7C147.6 456.8 169.4 477.6 195.6 477.6H435.5C464.3 477.6 486.6 452.4 483.6 423.8L456.4 163.6C454.1 142.1 436 126.4 421.1 126.4Z" stroke="#077AF1" stroke-width="24" stroke-linecap="round" stroke-linejoin="round"/>
  <path d="M124.8 112.8H396V410.4C396 439.1 372.7 462.4 344 462.4H124.8V112.8Z" fill="white" stroke="#077AF1" stroke-width="24" stroke-linejoin="round"/>
  <path d="M292.8 211.2C310 211.2 334.3 221.7 348.8 221.7C363.3 221.7 384 211.2 384 211.2" stroke="#077AF1" stroke-width="24" stroke-linecap="round"/>
  <path d="M172.8 285.6C212.8 305.6 284.8 333.6 348.8 297.6" stroke="#077AF1" stroke-width="24" stroke-linecap="round"/>
  <path d="M256.4 206L52 258L34 233.2L238.4 181.2L256.4 206Z" fill="#077AF1"/>
  <path d="M256.4 206L288 222L270 196L256.4 206Z" fill="#077AF1"/>
  <circle cx="58" cy="254" r="26" fill="#077AF1"/>
</svg>
